<svg width="147" height="127" viewBox="0 0 147 127" fill="none" xmlns="http://www.w3.org/2000/svg">
<path d="M31.2697 25.4313C30.2615 23.4847 29.6315 21.4082 29.3794 19.2165C29.3094 18.6397 29.5194 18.5243 29.9815 18.5964C31.1297 18.7694 32.2218 18.6685 33.1179 17.7745C33.2299 18.0773 33.3 18.3657 33.426 18.6108C33.79 19.303 34.1261 19.3462 34.6161 18.755C35.5123 17.688 36.6884 17.3996 37.9766 17.587C38.4947 17.6591 38.6067 17.5294 38.6627 17.0391C38.7887 15.7846 40.1609 14.1552 41.2951 13.8379C41.5051 13.7802 41.6031 13.8668 41.6591 14.0398C41.9812 15.0924 42.8493 15.5394 43.7174 15.972C44.4875 16.3614 45.1876 16.8084 45.6917 17.6447C45.8317 17.3707 45.9297 17.14 46.0417 16.9237C46.2938 16.4479 46.6718 16.1739 47.2039 16.1018C47.4979 16.0586 47.806 16.0153 48.1 15.9576C48.436 15.8855 48.9261 15.7846 48.8981 15.3953C48.8701 14.9627 48.366 15.1645 48.086 15.1357C47.1759 15.0636 46.2657 15.0203 45.3556 14.9771C45.0056 14.9627 44.7675 14.8761 44.7675 14.4436C44.7675 14.011 44.5015 13.6793 44.3475 13.3188C43.9554 12.396 44.2355 11.9778 45.1596 12.0499C46.6578 12.1797 48.072 11.8192 49.5002 11.4298C50.4803 11.1703 51.4605 10.9828 52.4686 11.0117C52.7066 11.0261 53.0287 11.1126 53.1407 10.781C53.2527 10.4349 53.2247 10.06 52.9307 9.77158C52.7486 9.58413 52.5106 9.48319 52.2586 9.39667C51.9925 9.31015 51.7265 9.22364 51.4745 9.09386C50.9704 8.81989 50.8724 8.34404 50.9564 7.79609C51.0404 7.27698 51.4465 7.20488 51.8525 7.14721C53.4487 6.88765 54.9469 7.26256 56.4171 7.89703C57.1453 8.21426 57.9014 8.45939 58.6435 8.73337C58.9515 8.83431 59.2735 8.9064 59.3296 8.43056C59.3856 8.02681 59.1755 7.78167 58.7975 7.72399C58.5034 7.68073 58.1954 7.69515 57.8874 7.68073C57.5233 7.65189 57.1593 7.60863 57.0332 7.19046C56.9072 6.78671 57.0752 6.44064 57.3973 6.18109C58.9095 4.89774 60.6177 4.50841 62.508 5.07078C64.5663 5.6764 66.2045 6.95975 67.7447 8.43056C67.9267 8.60359 68.0247 8.80547 68.0247 9.06502C68.0247 9.25248 68.0388 9.45435 68.0528 9.64181C68.1928 11.127 68.2488 11.1847 69.677 10.9828C70.2091 10.9107 70.7411 10.7954 71.2732 10.7665C71.8333 10.7377 71.7493 10.5358 71.5392 10.1465C70.3911 8.171 70.6011 7.5077 72.6874 6.6281C73.1355 6.44064 73.6115 6.29645 74.0876 6.16667C74.5777 6.03689 74.7457 5.71966 74.7457 5.21497C74.7597 4.27769 74.6477 3.34042 74.8437 2.41756C75.1237 1.19189 76.2719 0.716039 77.322 1.37934C77.5181 1.50912 77.7001 1.66774 77.9101 1.76867C78.2742 1.95613 78.6102 1.95613 78.9043 1.58122C80.1084 0.0527349 81.6346 -0.264498 83.4269 0.24019C84.8831 0.643941 86.2133 1.32166 87.6135 1.84077C88.7896 2.27336 89.9658 2.60501 91.226 2.54734C91.716 2.5185 91.828 2.74921 91.786 3.21064C91.744 3.68649 91.534 4.27769 91.8 4.62377C92.0941 5.02752 92.6542 4.59493 93.1022 4.60935C93.9843 4.62377 94.6004 5.07078 95.0485 5.80618C95.6366 6.75788 96.0146 7.83935 96.8547 8.61801C97.0088 8.76221 97.0228 8.94966 96.9387 9.15154C96.8827 9.25248 96.7987 9.35341 96.7707 9.46877C96.5187 10.3916 95.9166 10.5935 95.0485 10.507C94.3204 10.4349 93.6343 10.7377 92.9482 10.9684C92.4861 11.127 92.0241 11.3001 91.548 11.401C90.3298 11.6606 89.7558 11.2568 89.4757 10.0023C89.2937 9.1948 89.2937 9.1948 88.6356 9.61297C87.7255 10.1898 86.7593 10.7089 86.0312 11.5452C85.5272 12.122 85.5692 12.2662 86.2693 12.5113C87.8375 13.0593 89.3917 13.6361 90.9179 14.2994C91.366 14.4868 91.814 14.5877 92.2761 14.4291C92.9762 14.1984 93.7183 14.4003 94.4184 14.184C94.4604 14.1696 94.5304 14.1696 94.5584 14.1984C95.2165 14.9771 96.0426 14.7896 96.8827 14.7031C97.2888 14.6598 97.6528 14.8906 97.9889 15.1069C98.3809 15.352 98.479 15.1645 98.493 14.7896C98.493 14.4147 98.3249 14.1407 97.9749 14.011C97.6528 13.8956 97.3028 13.8091 96.9808 13.6937C96.3507 13.4486 96.0846 12.8862 96.4067 12.3239C97.1628 10.9973 97.6809 9.54087 98.395 8.19984C98.619 7.76725 98.885 7.62305 99.3331 7.65189C100.047 7.70957 100.775 7.75283 101.503 7.75283C101.937 7.75283 102.035 7.96913 102.091 8.35846C102.315 9.95904 102.876 11.4154 104.01 12.5834C105.942 14.6022 108.672 14.7175 110.703 12.8141C111.165 12.3815 111.375 12.6123 111.655 12.9583C112.677 14.2561 113.405 15.7269 113.979 17.2842C114.287 18.1061 114.707 18.1927 115.267 17.5294C115.407 17.3707 115.491 17.0968 115.715 17.1256C116.023 17.1689 115.939 17.5005 115.981 17.7168C116.191 18.5243 116.583 18.9136 117.382 19.0002C118.054 19.0723 118.74 19.0578 119.398 19.1444C121.106 19.3895 121.456 20.0672 121.19 21.5957C120.826 23.6866 119.804 25.4025 118.446 26.931C117.564 27.9403 117.676 27.6375 118.278 28.6325C118.46 28.9353 118.642 29.2525 118.782 29.5842C118.978 30.0312 119.272 30.1177 119.678 29.9014C120.14 29.6563 120.644 29.5409 121.162 29.5121C122.17 29.4544 122.968 29.0795 123.388 28.0701C123.486 27.8394 123.626 27.4789 123.878 27.9548C124.733 29.5986 126.091 30.7954 127.267 32.1509C127.729 32.67 128.163 33.1891 128.513 33.7947C128.793 34.2706 129.171 34.4292 129.675 34.4148C130.613 34.4004 131.538 34.3859 132.476 34.4292C133.974 34.4869 134.45 35.2511 133.96 36.6931C133.092 39.2309 131.888 41.5813 130.025 43.4992C129.773 43.7587 129.591 43.9894 130.109 44.1336C132.336 44.7104 134.198 45.9793 135.934 47.4646C136.55 47.9981 137.068 47.9116 137.628 47.5078C138.034 47.2194 138.398 46.8878 138.819 46.6138C139.827 45.9505 140.765 46.0947 141.479 47.032C142.767 48.7335 144.223 50.1899 146.338 50.709C146.618 50.7811 146.73 50.9397 146.716 51.2137C146.716 51.5309 146.716 51.8337 146.702 52.151C146.674 53.1892 146.492 53.319 145.525 53.1027C145.189 53.0306 144.825 52.5691 144.545 52.9152C144.363 53.1315 144.489 53.6073 144.475 53.9678C144.461 54.3572 144.447 54.7321 144.405 55.1214C144.251 56.275 143.817 56.7652 142.739 57.0392C142.543 57.0825 142.375 57.0681 142.193 56.9671C142.011 56.8662 141.815 56.6931 141.633 56.6931C140.569 56.7364 140.429 56.001 140.219 55.1502C139.925 53.9246 139.309 52.8287 138.314 52.0356C137.432 51.3146 136.41 51.3867 135.654 52.1654C135.444 52.3817 135.276 52.5691 135.528 52.8864C135.766 53.2036 135.738 53.6073 135.808 53.9823C135.85 54.1553 135.906 54.3283 136.088 54.3572C136.326 54.4004 136.396 54.1985 136.466 54.0111C136.592 53.6939 136.662 53.3622 136.83 53.0738C136.984 52.7854 137.278 52.6268 137.614 52.7422C137.964 52.8575 137.838 53.1603 137.81 53.4199C137.614 54.8042 137.824 56.1452 138.244 57.4574C138.426 58.0486 138.524 58.6686 138.679 59.2743C138.847 59.9231 138.581 60.2404 137.978 60.4278C136.62 60.8748 135.5 60.4278 134.506 59.5194C133.666 58.7552 133.092 57.8035 132.588 56.7941C132.364 56.3471 132.126 56.2461 131.72 56.5634C131.426 56.7941 131.089 56.9815 130.795 57.2123C129.451 58.2361 127.981 58.4379 126.413 57.9477C125.895 57.789 125.601 57.8756 125.391 58.4235C124.929 59.5771 124.046 60.0818 122.842 60.0529C121.834 60.0385 120.854 59.7645 119.874 59.5627C119.342 59.4473 118.81 59.4329 118.278 59.4617C117.382 59.505 116.569 60.2115 116.345 61.0911C116.233 61.5237 116.471 61.7112 116.765 61.8842C117.522 62.3168 118.39 62.2736 119.202 62.4754C119.636 62.5764 120.084 62.6196 120.504 62.7494C121.26 62.9657 121.876 63.3695 122.044 64.2346C122.128 64.6961 122.394 64.7826 122.786 64.8114C124.803 64.9556 126.637 64.4221 128.191 63.0666C128.681 62.6485 129.031 62.6917 129.437 63.1243C129.787 63.4992 130.151 63.8886 130.557 64.2058C131.187 64.7105 131.762 64.6961 132.42 64.249C135.108 62.3745 138.118 61.4228 141.311 61.0335C142.963 60.8316 143.005 60.8316 143.551 62.4033C143.943 63.4992 144.671 64.2346 145.581 64.8691C146.884 65.792 146.856 65.9217 145.413 66.585C144.517 66.9888 143.579 67.2916 142.683 67.6809C141.843 68.0414 141.143 68.5894 140.695 69.4257C140.555 69.6708 140.401 69.8439 140.093 69.8439C138.903 69.8727 137.712 69.8295 136.55 69.4978C135.794 69.2815 135.122 68.8922 134.702 68.1279C134.366 68.3587 134.338 68.6903 134.226 68.9643C133.624 70.4351 132.616 70.7956 131.257 70.0169C131.019 69.8727 130.809 69.6853 130.725 70.1611C130.613 70.7523 130.165 70.9398 129.647 71.0263C129.255 71.084 128.863 71.1128 128.471 71.1993C128.247 71.2426 127.995 71.3435 127.953 71.6175C127.911 71.877 128.135 71.9924 128.289 72.1222C129.227 72.8576 130.305 73.319 131.383 73.766C133.68 74.7033 136.046 75.482 138.23 76.6788C139.057 77.1258 139.841 77.6738 140.471 78.3947C141.185 79.2022 141.521 80.1539 141.311 81.2498C141.241 81.6247 141.115 81.942 140.695 81.5094C140.303 81.12 139.841 81.0624 139.323 81.2354C138.342 81.5671 137.39 81.5959 136.536 80.8749C136.312 80.6875 136.158 80.7451 136.032 80.9903C135.472 82.0573 134.478 82.5332 133.442 82.9513C132.77 83.2253 132.112 83.5281 131.468 83.8598C130.907 84.1482 130.515 84.624 130.207 85.172C130.067 85.4171 129.969 85.5325 129.703 85.2441C129.059 84.5231 128.863 84.5519 128.289 85.3883C127.841 86.0372 127.869 86.0083 127.463 85.3162C126.693 84.004 125.489 83.2542 124.159 82.6629C124.046 82.6197 123.906 82.5764 123.864 82.7062C123.836 82.7927 123.892 82.9369 123.934 83.0379C124.467 84.0472 125.237 84.8547 126.035 85.6334C127.379 86.96 128.863 88.1424 129.913 89.7718C130.417 90.5505 130.389 90.6659 129.661 91.2138C129.017 91.7041 128.247 91.6897 127.519 91.7617C126.707 91.8338 125.965 92.0934 125.265 92.4683C124.579 92.8432 124.201 92.7279 123.892 91.9925C123.738 91.6176 123.654 91.2138 123.472 90.8533C123.178 90.2477 122.842 90.2333 122.464 90.7812C122.016 91.4589 121.33 91.6752 120.616 91.805C119.79 91.9492 118.95 91.978 118.124 92.1943C117.452 92.3674 116.92 92.7279 116.667 93.42C116.513 93.8382 116.569 94.1554 117.13 94.0401C118.152 93.8382 118.95 94.2419 119.594 95.035C119.762 95.2369 119.93 95.4388 120.112 95.6262C120.742 96.2895 121.008 96.2607 121.498 95.4676C121.68 95.1936 121.862 94.9341 122.212 95.0206C122.562 95.1071 122.436 95.4388 122.478 95.6839C122.576 96.2463 122.786 96.3328 123.234 96.0011C123.346 95.9146 123.444 95.8137 123.542 95.7127C123.836 95.3811 124.074 95.1936 124.201 95.8425C124.229 95.9867 124.355 96.1598 124.481 96.2463C125.237 96.7221 125.111 97.3277 124.817 98.0343C124.089 99.8079 122.968 101.38 122.268 103.168C122.24 103.254 122.17 103.37 122.1 103.384C121.134 103.615 120.266 104.278 119.216 104.047C118.516 103.903 118.334 103.571 118.558 102.865C118.614 102.706 118.67 102.548 118.74 102.389C118.908 101.928 118.796 101.654 118.292 101.567C117.816 101.481 117.466 101.625 117.452 102.158C117.438 102.591 117.55 103.009 117.592 103.442C117.62 103.73 117.676 104.004 117.69 104.292C117.704 104.783 117.676 105.259 117.172 105.518C116.653 105.778 116.331 105.432 116.009 105.129C115.253 104.437 114.385 104.134 113.377 104.163C112.271 104.191 111.263 103.903 110.311 103.096C111.123 102.894 111.823 102.605 111.739 101.553C111.221 101.755 110.885 102.173 110.367 102.317C109.288 102.591 108.28 102.317 107.272 102.072C106.348 101.856 105.452 101.351 104.486 101.452C103.646 101.538 102.89 101.812 102.526 100.63C102.4 100.226 101.993 100.269 101.629 100.63C100.355 101.856 99.5851 101.913 98.1709 100.846C97.3868 100.255 96.7707 99.9233 95.9166 100.745C95.6226 101.034 95.0345 100.947 94.5864 101.106C93.1722 101.596 91.9401 102.317 91.24 103.744C91.1279 103.975 90.9879 104.249 90.6519 104.076C89.5597 103.499 88.4816 103.716 87.3894 104.047C86.3253 104.365 85.3872 103.514 85.5412 102.403C85.5692 102.187 85.5972 101.971 85.6112 101.755C85.6812 101.207 85.5692 100.875 84.9111 100.817C83.6929 100.716 82.8668 99.981 82.2787 98.9139C82.1807 98.7264 82.1387 98.5102 81.9427 98.3804C81.7046 98.4092 81.7607 98.6111 81.7186 98.7697C80.8225 102.822 80.5285 106.902 80.9765 111.07C81.5086 116.016 82.3067 120.904 83.2169 125.778C83.3709 126.628 83.3149 126.701 82.5028 126.701C77.9101 126.701 73.3035 126.701 68.7109 126.701C67.9548 126.701 67.8567 126.556 68.0108 125.821C68.2908 124.35 68.5708 122.879 68.8229 121.394C69.4529 117.688 69.985 113.954 70.3491 110.204C70.7131 106.513 70.4051 102.865 69.607 99.26C69.523 98.8418 69.523 98.3948 69.2709 98.0199C68.9769 98.0776 68.9489 98.3515 68.8509 98.5534C68.3468 99.5916 67.6327 100.37 66.5266 100.702C66.1625 100.817 66.2325 100.961 66.3585 101.207C67.0866 102.649 67.0726 102.649 65.6724 103.269C64.3282 103.86 63.1101 104.653 62.0179 105.633C61.7239 105.907 61.5139 105.98 61.2198 105.619C60.6877 104.985 59.8336 104.985 59.1615 104.624C58.7555 104.408 57.9434 105.23 57.8453 105.85C57.7753 106.297 57.8874 106.859 57.1312 106.398C56.8232 106.21 56.5852 106.556 56.3751 106.787C56.0111 107.176 55.647 107.537 55.059 107.494C54.7229 107.465 54.5549 107.364 54.5969 106.96C54.7369 105.576 54.4429 105.244 53.0987 105.201C52.4686 105.172 51.8805 105.114 51.5585 104.437C51.4465 104.206 51.2504 104.177 51.0264 104.249C49.8362 104.624 48.6181 104.783 47.3859 104.941C46.5178 105.057 45.7757 105.504 44.9076 106.037C45.1176 105.158 44.7535 104.682 44.2215 104.249C43.7034 103.831 43.6054 103.096 43.8854 102.331C44.0814 101.783 44.5435 101.913 44.9496 101.884C45.2576 101.87 45.5937 101.856 45.6777 101.481C45.7617 101.12 45.6077 100.832 45.2856 100.644C43.3253 99.534 41.6871 97.8757 39.5728 97.0394C39.3488 96.9528 39.1948 96.8086 39.1668 96.5202C39.0548 95.0206 40.0489 93.6796 41.4491 93.42C41.8411 93.3479 42.1072 93.42 42.3452 93.7805C42.7233 94.3717 43.2693 94.7899 43.9134 95.0639C44.7115 95.4099 45.4676 95.3811 46.0697 94.6601C46.2938 94.4006 46.4478 94.3429 46.6438 94.6745C47.2739 95.7127 48.296 96.0444 49.3742 96.1886C50.4523 96.3184 51.5165 96.203 52.5666 95.9579C53.0147 95.8569 53.1547 95.6406 52.9727 95.1936C52.5246 94.0545 52.0906 92.9153 51.6705 91.7762C51.5445 91.4445 51.3484 91.2715 51.0404 91.1705C50.3963 90.9398 49.9202 90.4928 49.5422 89.9305C49.0241 89.1662 48.366 89.2239 47.96 90.0747C47.904 90.2044 47.862 90.3486 47.806 90.4784C47.4559 91.2282 47.2179 91.2715 46.7418 90.6226C46.1397 89.8007 45.3276 89.7718 44.4595 89.9593C43.5914 90.1468 42.7093 90.2189 41.8131 90.19C41.043 90.1756 40.3989 89.9305 39.8949 89.3248C39.0127 88.2722 38.1306 87.2196 37.2205 86.1814C36.9125 85.8209 36.5904 85.4748 36.0583 85.3738C36.0023 85.6911 36.1984 85.9218 36.2964 86.1669C36.8144 87.4647 36.7304 87.955 35.7503 88.9211C35.5123 89.1518 35.2742 89.3825 35.0222 89.5988C34.5181 90.017 34.7002 90.3198 35.1622 90.5793C35.5403 90.7812 35.9463 90.8966 36.3664 90.8966C36.8284 90.8966 37.3045 90.8822 37.7666 90.911C38.6907 90.9831 38.8727 91.3147 38.8167 92.2664C38.6627 94.6601 37.5005 96.65 36.5484 98.7265C36.3804 99.1158 36.1844 99.0869 35.9183 98.8418C34.7001 97.7603 33.2159 97.5008 31.6757 97.4143C29.9115 97.3133 28.1332 97.3998 26.369 97.1115C25.4309 96.9528 24.5627 96.6644 23.8066 96.0444C23.6806 95.9435 23.5546 95.7704 23.3866 95.9002C23.2466 96.0155 23.2746 96.203 23.2886 96.376C23.3306 96.7654 23.5966 96.9528 23.8907 97.1259C24.1567 97.2845 24.4227 97.4287 24.6608 97.6161C24.9128 97.8324 24.9688 98.1497 24.8568 98.4669C24.7168 98.8418 24.4227 98.6255 24.1987 98.5967C22.9665 98.4813 21.7344 98.4957 20.5022 98.6111C19.6621 98.6976 18.836 98.7264 17.9958 98.5678C17.1837 98.4092 16.9737 98.1352 17.0857 97.2989C17.1557 96.7221 17.3658 96.1886 17.5758 95.6551C17.7018 95.3522 17.8558 94.9918 17.4358 94.7755C17.0157 94.5592 16.6237 94.7322 16.4136 95.1215C16.2176 95.4676 16.1476 95.8858 16.0216 96.2751C15.7135 97.2268 14.9014 97.5008 14.2573 96.7798C12.4931 94.8043 11.3029 92.526 11.2889 89.7574C11.2889 88.0703 12.101 87.2917 13.7113 87.2917C14.4534 87.2917 15.1395 87.4935 15.8115 87.7531C16.3156 87.955 16.5676 87.8396 16.5816 87.2628C16.5957 86.9889 16.5256 86.6284 16.8477 86.4986C17.1977 86.3544 17.3938 86.6716 17.6178 86.8591C18.5699 87.6954 18.7519 87.6666 19.41 86.5563C20.0121 85.5325 20.5162 84.4654 21.4123 83.5137C20.8942 83.4272 20.5162 83.3839 20.1381 83.2974C19.8161 83.2109 19.4941 83.0667 19.5081 82.6485C19.5081 82.2592 19.7041 81.9564 20.0541 81.7978C20.5302 81.5815 21.0483 81.5815 21.5663 81.5382C22.6305 81.4517 22.7845 81.3219 22.7565 80.2404C22.7285 79.2167 22.9385 78.2938 23.4286 77.4142C23.6246 77.0681 23.7506 76.6644 23.9327 76.3039C24.1567 75.8425 24.0027 75.5973 23.5266 75.482C22.2804 75.1647 21.1043 75.4531 19.9981 76.0155C18.5419 76.7653 17.1557 77.6593 15.6995 78.4236C13.9493 79.3464 12.227 79.5627 10.7148 77.9045C10.5048 77.6738 10.3228 77.7026 10.1268 77.9333C9.46867 78.712 8.60055 78.7841 7.69042 78.6975C7.29837 78.6687 7.08834 78.5389 7.17235 78.0631C7.31237 77.2556 6.90631 76.8086 6.20622 76.5346C5.77216 76.3616 5.31009 76.2318 5.08606 75.7415C4.79202 75.0926 5.00205 74.7466 5.68814 74.8042C6.15021 74.8475 6.61227 74.9196 7.07434 74.9773C7.46639 75.035 7.87245 75.0638 8.2645 74.9773C8.44653 74.934 8.65655 74.8763 8.68456 74.6456C8.71256 74.4293 8.51654 74.3861 8.36251 74.3284C8.02647 74.1986 7.81644 73.9823 7.77443 73.6074C7.71842 73.1027 7.41038 73.146 7.13034 73.3479C6.86431 73.5353 6.64028 73.7804 6.40224 74.0256C5.71615 74.7321 4.83403 74.6312 4.31595 73.7949C4.03592 73.3479 3.62986 73.0739 3.1678 72.8864C2.69173 72.6845 2.21566 72.4971 1.7536 72.2664C1.15152 71.9636 0.787467 71.4589 0.745461 70.7379C0.703456 69.9881 0.829473 69.8439 1.51557 70.0458C3.05578 70.4928 4.624 70.637 6.22022 70.5793C8.48853 70.4928 10.7148 70.0458 12.9551 69.8295C13.3332 69.8006 13.3892 69.4978 13.4312 69.2094C13.5572 68.0703 14.2433 67.3781 15.1395 66.8158C15.9936 66.2822 16.9037 65.8352 17.3658 64.8114C17.5618 64.3932 17.8558 64.6816 17.9258 64.9124C18.2479 65.8929 18.92 65.8785 19.7321 65.7054C20.2782 65.5901 20.8382 65.5757 21.3983 65.5036C22.2384 65.3738 23.0365 65.518 23.7366 66.0082C24.7168 66.7004 25.8089 66.7869 26.9571 66.686C28.3433 66.5706 28.4133 66.6427 28.8473 67.9837C29.0434 68.575 29.3514 68.6903 29.9115 68.474C31.4797 67.8684 31.5777 67.8828 32.6279 68.1279C32.7679 67.4358 32.3338 67.1474 31.8158 67.0176C31.2557 66.8734 30.6676 66.8446 30.0935 66.7581C28.9454 66.585 28.6093 66.1813 28.8053 65.0133C28.8893 64.4798 28.7073 64.3788 28.2733 64.3644C27.7552 64.35 27.2651 64.4798 26.7611 64.6384C26.271 64.7826 25.9629 64.6095 25.7949 64.0904C25.1788 62.1294 26.635 60.1106 28.6093 60.1827C28.9594 60.1971 29.1414 60.3269 29.2814 60.6586C29.9115 62.1438 30.8916 62.3889 32.1098 61.3795C32.2638 61.2498 32.4038 61.12 32.5719 61.3507C33.398 62.5187 34.6581 62.4322 35.8203 62.4322C37.1505 62.4178 38.4807 62.3168 39.8109 62.3457C40.2869 62.3601 40.4409 62.2303 40.2589 61.7112C40.0909 61.2209 39.8109 60.9325 39.3768 60.673C37.7526 59.7213 36.0583 58.9282 34.2801 58.3082C34.0981 58.2505 33.916 58.2216 33.748 58.1495C33.37 57.9909 32.7679 58.1928 32.6139 57.7602C32.3898 57.1402 32.5159 56.4336 32.6279 55.7703C32.6839 55.4386 32.9919 55.4242 33.2439 55.4531C33.846 55.5252 34.4481 55.6117 35.0502 55.6838C35.4002 55.727 35.7503 55.7559 36.0723 55.5684C36.3384 55.4242 36.4504 55.1647 36.4644 54.8474C36.4784 54.5302 36.2824 54.3716 36.0443 54.2562C34.6441 53.5352 33.1879 53.4343 31.7037 53.939C30.5556 54.3283 29.4494 54.8619 28.2313 55.0493C27.8112 55.1214 27.4051 55.1214 26.9851 55.0637C25.5709 54.8619 25.5429 54.833 25.8649 53.4487C25.9629 53.045 25.9489 52.6412 25.9209 52.2375C25.8369 51.2425 25.7949 51.2137 24.8288 51.1127C24.0727 51.0406 23.5686 50.5792 23.3586 49.6996C23.2046 49.0507 23.1346 48.373 22.9945 47.7241C22.7845 46.7292 22.6025 46.5994 21.6223 46.5417C19.8301 46.4552 18.0238 46.6426 16.2456 46.3687C15.2515 46.2245 14.3133 45.9649 13.6832 45.0997C13.4172 44.7248 13.3052 44.422 13.9773 44.4076C14.9294 44.3932 15.7975 44.0038 16.6517 43.6289C18.2479 42.9224 19.8581 42.3167 21.6363 42.3456C22.2524 42.36 22.2664 41.9707 22.1404 41.5381C22.0004 41.0767 21.6223 40.8171 21.2723 40.5431C20.5582 39.9663 20.3482 39.3175 20.6002 38.5965C20.6842 38.3369 20.7962 38.2071 21.0483 38.3802C21.4823 38.7118 21.9164 38.6109 22.3784 38.4234C22.6865 38.3081 23.0085 38.2216 23.3166 38.1783C23.6946 38.1206 24.0167 38.2071 24.0307 38.7118C24.0447 39.3175 24.4227 39.4761 24.9268 39.4472C25.3889 39.4184 25.8509 39.3463 26.313 39.2886C27.0551 39.2021 27.6572 39.577 28.2453 39.9952C28.4693 39.5626 28.5113 39.1588 28.2593 38.7984C28.0072 38.4523 27.6292 38.5821 27.2931 38.6686C26.7751 38.8128 26.425 38.6542 26.285 38.0918C26.117 37.3996 26.313 36.9238 26.8731 36.7508C27.2371 36.6498 27.6152 36.6354 27.9652 36.52C28.4133 36.3759 28.5533 36.0875 28.2733 35.6404C27.8392 34.9771 27.2231 34.559 26.537 34.2417C26.145 34.0254 25.7669 33.8092 25.3749 33.5929C24.7448 33.2612 24.1427 32.9007 23.6806 32.3383C23.5546 32.1797 23.3166 32.0067 23.4286 31.7904C23.5546 31.5308 23.7926 31.7039 23.9887 31.7471C25.3609 31.9923 26.117 31.5885 26.691 30.2908C26.9291 29.7428 27.1531 29.1949 27.4051 28.6469C27.5872 28.2432 27.8532 28.0701 28.3433 28.1278C31.3117 28.4595 33.972 29.6274 36.4084 31.3578C39.5308 33.5784 41.9111 36.448 43.3813 40.0673C43.6754 40.7883 43.6054 40.9036 42.8493 40.9036C41.8971 40.9036 40.945 40.7738 39.9929 40.6441C39.2228 40.5431 38.4667 40.4999 37.7106 40.7883C37.3185 40.9469 37.1645 41.1343 37.3885 41.5958C37.8366 42.533 37.6126 43.4415 37.0525 44.2346C36.6744 44.7681 36.1423 45.0709 35.4563 44.8114C34.7982 44.5518 34.4341 43.9462 34.4901 43.2252C34.5181 42.9368 34.6021 42.6628 34.6581 42.3744C34.7001 42.187 34.8262 41.9851 34.6441 41.8409C34.4481 41.6679 34.2521 41.8265 34.0701 41.9274C33.86 42.0572 33.734 42.2447 33.636 42.4754C33.314 43.2108 33.314 44.0183 33.1599 44.7969C33.1039 45.0709 33.286 45.2007 33.51 45.2439C34.2801 45.417 34.7282 45.9793 35.1062 46.6427C35.3302 47.032 35.6103 47.3925 36.0163 47.6232C36.8564 48.0702 37.2345 47.8683 37.3325 46.931C37.4305 45.9072 37.6406 45.7054 38.6627 45.5756C39.0548 45.5323 39.4468 45.4602 39.7969 45.2295C40.1049 45.0276 40.2449 44.7537 40.2029 44.3788C40.1749 44.0183 39.9509 43.8308 39.6428 43.7299C39.4048 43.6434 39.1528 43.5857 38.9147 43.4847C38.4247 43.2829 38.4107 42.8503 38.4807 42.4033C38.5507 41.9563 38.8447 41.8265 39.2368 41.8553C39.7549 41.8986 40.2589 41.9563 40.777 41.9418C42.2192 41.913 43.5774 42.1726 45.0616 41.3506C46.5318 40.5287 47.6799 39.8366 47.848 38.0053C47.876 37.6159 48.072 37.1401 48.5201 37.0968C48.9121 37.0536 49.0661 37.5006 49.2622 37.7746C49.8362 38.5965 50.0323 38.5821 50.4803 37.6592C50.5363 37.5583 50.6063 37.4429 50.6344 37.342C50.9984 35.8423 52.0065 35.1358 53.4347 34.9771C53.4627 34.9771 53.4767 34.9627 53.5047 34.9627C54.1068 34.9195 54.2468 34.6455 54.0228 34.0543C53.4767 32.6123 53.1967 31.0983 53.1407 29.5554C53.1127 28.9786 52.9447 28.7479 52.3986 28.6758C50.9564 28.5027 49.5142 28.6037 48.058 28.6181C46.1397 28.6325 44.2215 28.6613 42.6252 27.104C42.5692 27.8394 42.9613 28.1278 43.3813 28.4018C43.8294 28.6902 44.2215 29.0218 44.2635 29.613C44.3055 30.2187 44.1375 30.334 43.6054 30.1177C43.2833 29.9879 42.9333 29.9447 42.5832 29.9303C41.9532 29.9158 41.3231 29.9447 40.693 29.9014C40.1749 29.8726 39.8389 29.5698 39.6988 29.0362C39.5728 28.546 39.1808 28.445 38.8447 28.7911C38.6907 28.9497 38.5787 29.1804 38.4947 29.4112C38.2846 29.9158 38.1026 30.435 37.4445 30.3917C36.7444 30.334 36.4644 29.8149 36.3104 29.1949C36.1283 28.4883 36.2124 27.7673 36.2544 27.0463C36.2684 26.6137 36.2964 26.1812 36.0303 25.8062C35.9043 25.6332 35.7503 25.4602 35.5123 25.489C35.2742 25.5178 35.1902 25.7341 35.1342 25.9504C35.0362 26.3542 34.9802 26.7435 34.9802 27.1617C34.9802 27.6231 34.9522 28.1278 34.4901 28.3441C33.9861 28.5748 33.608 28.2143 33.258 27.8971C32.5018 27.2482 31.8718 26.3542 31.2697 25.4313ZM101.657 86.0083C102.105 85.7199 102.484 85.8785 102.876 86.1525C103.184 86.3688 103.478 86.5418 103.898 86.3111C104.78 85.8209 104.794 85.8641 105.13 86.8447C105.62 88.2722 106.53 89.3248 107.86 89.9593C108.35 90.19 108.602 90.0602 108.644 89.4834C108.686 88.8201 108.406 88.402 107.846 88.1136C107.454 87.9117 106.992 87.7819 106.712 87.3061C107.818 87.5656 108.644 87.0898 109.428 86.4265C109.779 86.1237 110.199 85.965 110.661 86.0227C111.249 86.1092 111.417 85.8209 111.445 85.2441C111.473 84.3068 111.697 83.3984 112.173 82.5764C112.411 82.1583 112.719 81.9708 113.209 82.0141C114.161 82.1006 115.113 81.9996 116.051 81.7978C116.527 81.6968 117.004 81.6824 117.424 81.8699C118.082 82.1727 118.264 81.8554 118.278 81.2642C118.292 80.8605 118.32 80.4423 118.264 80.0386C118.082 78.7264 117.83 77.443 117.676 76.1309C117.48 74.5303 117.438 72.9153 118.194 71.4156C118.544 70.7235 118.39 70.4928 117.62 70.4928C117.2 70.4928 116.906 70.6946 116.723 71.0551C116.597 71.3147 116.485 71.5742 116.345 71.8338C116.163 72.1654 115.925 72.425 115.519 72.3673C115.127 72.3241 115.197 71.9491 115.113 71.704C114.665 70.3341 113.825 69.8006 112.439 70.0025C111.193 70.1899 110.171 70.8533 109.232 71.6463C108.854 71.9636 108.644 72.0212 108.238 71.6896C107.538 71.1272 107.16 71.2714 106.838 72.1366C106.334 73.4776 105.844 74.8331 105.34 76.1597C105.186 76.5779 105.242 76.8086 105.732 76.7797C106.11 76.7509 106.348 76.9239 106.446 77.3133C106.698 78.3515 107.356 79.058 108.224 79.606C108.882 80.0242 109.512 80.4567 110.157 80.9037C110.325 81.0191 110.493 81.1489 110.465 81.4229C110.409 81.8843 109.639 82.9513 109.19 83.0379C107.244 83.4128 105.298 83.73 103.576 82.3025C103.254 82.0429 103.086 82.1294 102.96 82.4899C102.512 83.6867 102.091 84.8547 101.657 86.0083ZM89.7278 76.3904C89.6717 76.3904 89.6157 76.3904 89.5457 76.4048C89.2517 75.6694 88.9436 74.9196 88.6636 74.1698C86.8574 69.3536 85.0511 64.5374 83.2589 59.7213C82.6288 58.0342 82.5868 58.3802 84.155 57.9477C87.1234 57.1257 89.8818 55.9001 92.0801 53.5929C96.5327 48.921 96.9808 41.4948 93.1582 36.3759C91.212 33.7659 88.4956 32.4393 85.5412 31.5597C82.0267 30.5215 78.3722 30.3629 74.7597 29.9303C72.7714 29.6995 70.7551 29.6275 68.8229 28.993C67.5067 28.5604 67.2266 27.4212 68.1088 26.2965C68.7389 25.489 69.579 25.0276 70.5171 24.768C74.5637 23.6866 78.5122 24.0759 82.3767 25.6188C84.8551 26.5993 87.0674 28.0845 89.2657 29.5698C90.1758 30.1754 90.2318 30.1466 90.7499 29.2093C92.3041 26.4263 93.8723 23.6289 95.4265 20.8459C95.9026 19.9951 95.8606 19.2597 95.3285 18.6541C94.6424 17.8754 93.3403 17.414 92.6822 17.8754C91.9961 18.3513 91.436 18.1927 90.7919 17.9043C89.1677 17.1833 87.5154 16.52 85.8352 15.9288C79.4363 13.6649 72.9814 13.2467 66.4565 15.2655C63.0961 16.3037 60.2957 18.2359 58.3774 21.3361C56.6552 24.1336 56.1231 27.2049 56.5992 30.4494C57.1593 34.2994 59.0215 37.2987 62.368 39.2454C64.5803 40.5287 66.9886 41.1488 69.481 41.466C72.8834 41.8986 76.2859 42.2447 79.6884 42.6484C80.8505 42.7782 81.9987 42.9512 83.1048 43.355C84.141 43.7443 84.421 44.4653 84.043 45.5179C83.8889 45.9505 83.6089 46.311 83.3009 46.6427C82.3907 47.6088 81.2146 48.0702 79.9824 48.3874C76.5519 49.2382 73.1775 48.8344 69.831 47.8827C67.8987 47.3348 65.9945 46.6426 64.3703 45.3881C63.7962 44.9555 63.3201 44.4509 63.2781 43.6434C63.2081 42.3167 61.8079 41.2497 60.5337 41.4948C60.1417 41.5669 59.8476 41.7976 59.6236 42.1005C57.8033 44.5662 56.0111 47.0464 54.1908 49.5122C53.9108 49.9015 53.9388 50.1466 54.2889 50.4783C55.395 51.5165 56.5992 52.4249 57.8313 53.2901C61.0238 55.5107 64.3562 57.4141 68.1928 58.164C68.8789 58.2937 68.9209 58.4956 68.6828 59.0724C66.4705 64.6816 64.2862 70.2909 62.0879 75.9001C62.0179 76.0876 61.9899 76.4048 61.7519 76.3904C61.5139 76.376 61.5139 76.0732 61.4438 75.8857C60.1557 72.3529 58.8675 68.8345 57.5933 65.3017C56.8232 63.182 56.0671 61.0767 55.311 58.957C54.989 58.063 55.003 58.0342 55.8291 57.7025C56.3471 57.5006 56.6692 57.0969 56.8092 56.5634C57.1593 55.2079 55.9971 53.5641 54.6389 53.5497C50.3403 53.5208 46.0557 53.5208 41.7571 53.5352C40.721 53.5352 40.0629 54.1265 39.9509 55.0781C39.7688 56.5778 40.1469 57.4286 41.2251 57.7458C42.0092 57.9765 42.5412 58.4235 42.8493 59.1878C43.0033 59.5627 43.1993 59.9232 43.3393 60.2981C46.4618 68.5317 49.5702 76.7653 52.6786 84.9989C54.1348 88.849 55.605 92.6846 57.0192 96.5491C57.2713 97.2412 57.6353 97.5008 58.3494 97.4719C60.0717 97.4143 61.8079 97.4575 63.5301 97.4575C65.8965 97.4575 65.8825 97.4575 66.7506 95.2081C69.649 87.8108 72.3654 80.3558 75.1097 72.9008C75.2217 72.598 75.2638 72.2375 75.5298 72.0068C75.7398 72.1366 75.7678 72.3673 75.8378 72.5548C77.392 76.7797 78.9183 81.0047 80.5005 85.2152C81.9007 88.9499 83.3569 92.6702 84.7571 96.4193C85.0511 97.2124 85.4712 97.5008 86.3113 97.4719C88.5236 97.3998 90.7499 97.4143 92.9622 97.4575C93.6063 97.4719 93.9003 97.2412 94.1244 96.6356C95.2165 93.6219 96.3507 90.6226 97.4708 87.6233C99.7671 81.5094 102.049 75.3954 104.36 69.2815C105.592 66.0082 106.838 62.7494 108.07 59.4906C108.406 58.5821 108.966 57.9477 109.919 57.7169C110.395 57.6016 110.815 57.2988 110.927 56.7941C111.305 54.9916 111.123 53.4631 108.854 53.5064C105.704 53.5497 102.554 53.5208 99.4031 53.5208C98.2549 53.5208 97.1208 53.492 95.9726 53.5352C94.9785 53.5785 94.3904 54.1985 94.2924 55.2079C94.1524 56.5778 94.5584 57.443 95.4966 57.7458C96.4067 58.0486 96.4067 58.0486 96.1126 58.9859C96.0566 59.1445 96.0006 59.3031 95.9446 59.4617C94.2224 64.1481 92.5001 68.8489 90.7779 73.5353C90.4418 74.487 90.0918 75.4387 89.7278 76.3904ZM107.678 26.8012C107.65 26.8012 107.636 26.8012 107.608 26.8012C107.09 26.7435 106.348 27.0752 106.208 26.2677C106.082 25.5611 106.74 25.4313 107.272 25.2727C107.51 25.2006 107.846 25.0564 107.762 24.7536C107.65 24.3354 107.328 24.6382 107.118 24.6959C104.99 25.2006 103.044 24.8978 101.335 23.427C101.237 23.3405 101.125 23.1819 100.985 23.2395C100.789 23.3116 100.845 23.5279 100.845 23.6866C100.859 24.4796 100.775 25.2727 100.719 26.0514C100.691 26.383 100.565 26.5705 100.243 26.657C99.095 26.9887 98.0589 26.8156 97.2748 25.8207C96.9388 25.3881 96.7147 25.3304 96.4207 25.8639C95.4545 27.6375 94.4464 29.4112 93.4663 31.1704C93.3262 31.4155 93.2562 31.6606 93.5223 31.8769C94.2504 32.4825 94.8665 33.2035 95.4966 33.9245C95.6926 34.1552 95.8606 34.2129 96.0426 33.9101C96.4347 33.2612 96.9528 33.4054 97.4148 33.7659C98.633 34.732 100.047 35.0492 101.531 35.1646C102.764 35.2655 104.01 35.2367 105.214 35.5683C105.83 35.7414 106.124 35.4818 106.376 34.9916C106.796 34.2129 106.712 33.4198 106.516 32.6123C106.334 31.8769 106.082 31.1271 106.32 30.3484C106.404 30.1033 106.446 29.8149 106.754 29.7572C107.076 29.6851 107.342 29.8149 107.566 30.0745C108.252 30.8675 108.252 30.8675 109.106 30.2475C109.246 30.1466 109.372 30.0456 109.512 29.9735C109.863 29.7716 109.975 29.5698 109.695 29.1949C109.414 28.82 109.274 28.3441 109.134 27.8827C108.798 26.7724 108.798 26.7724 107.678 26.8012ZM42.2752 76.3183C42.0092 75.7848 41.7991 75.3666 41.5751 74.9484C41.141 74.1121 40.609 73.3623 39.8669 72.7855C37.9906 71.3147 35.8203 71.2282 33.608 71.3291C33.2439 71.3435 33.0899 71.5598 33.0619 71.9492C33.0059 72.5404 33.286 72.9153 33.734 73.1748C34.0001 73.3334 34.2941 73.4488 34.4621 73.7083C34.6441 73.9823 34.7982 74.2996 34.2801 74.3717C33.888 74.4293 33.65 74.7033 33.482 75.0061C33.2439 75.3954 32.9219 75.5252 32.4878 75.5541C31.4797 75.6117 30.5556 75.4243 29.8275 74.4149C29.7435 74.9773 29.7015 75.3233 29.3514 75.5396C29.1554 75.655 29.1974 75.8857 29.4214 75.9866C29.5894 76.0732 29.7715 76.1164 29.9535 76.1741C33.706 77.4142 37.3185 78.9283 40.0489 82.0429C40.3569 82.4034 40.4829 82.2015 40.651 81.9131C41.2391 80.8893 41.9812 80.0097 42.8773 79.2599C43.1293 79.0436 43.3393 79.0004 43.6194 79.2167C44.4455 79.88 45.3976 79.9665 46.4058 79.8367C46.9378 79.7646 47.1199 79.5627 46.9098 79.0436C46.5038 77.991 46.1117 76.9383 45.7057 75.9001C45.6077 75.6694 45.4676 75.4675 45.1736 75.5541C44.7115 75.6983 44.2915 75.5252 43.8994 75.3378C43.3533 75.0782 42.9613 75.2368 42.6533 75.7415C42.5692 75.9001 42.4572 76.0443 42.2752 76.3183ZM119.944 40.1105C119.524 40.024 119.216 40.0673 118.88 40.1394C118.082 40.3124 117.27 40.4422 116.457 40.3557C115.869 40.298 115.365 39.9952 115.239 39.4328C115.043 38.5821 114.511 38.4955 113.839 38.4955C113.391 38.4955 112.957 38.4667 112.509 38.4667C111.529 38.4523 111.039 39.2886 111.515 40.2115C111.711 40.6008 111.949 40.9469 112.019 41.3939C112.047 41.6102 112.131 41.913 111.921 41.9851C111.319 42.2158 111.207 42.7638 111.025 43.2684C110.815 43.8741 110.269 43.8597 109.807 43.9173C109.4 43.9606 109.106 43.7587 108.91 43.355C108.784 43.0954 108.7 42.6051 108.378 42.7205C108.056 42.8359 108.182 43.2973 108.238 43.6289C108.252 43.7299 108.266 43.8164 108.308 43.9029C108.56 44.4941 108.868 45.0709 108.798 45.7631C108.784 45.9217 108.868 46.0514 109.036 46.037C109.723 46.0082 110.213 46.4552 110.759 46.7436C111.067 46.9022 111.361 46.9743 111.655 46.6859C111.949 46.4119 111.837 46.138 111.711 45.8351C111.445 45.2295 111.655 44.8114 112.243 44.5951C112.523 44.4941 112.817 44.422 113.111 44.3499C114.133 44.1192 115.169 43.9173 115.869 42.908C116.261 43.7587 116.948 43.9606 117.69 44.0615C118.124 44.1192 118.572 44.2201 119.006 44.2201C119.468 44.2057 119.888 44.8834 120.322 44.4076C120.644 44.0471 120.826 43.5568 121.078 43.1098C121.302 42.7061 121.274 42.5186 120.728 42.5763C120.21 42.634 119.678 42.5475 119.412 41.9851C119.146 41.4371 119.356 40.9613 119.664 40.5143C119.762 40.3989 119.832 40.2836 119.944 40.1105ZM45.7337 86.8879C45.9857 86.9312 46.1677 86.8158 46.2517 86.4986C46.3218 86.2246 46.4058 85.9506 46.5318 85.6911C46.6718 85.3883 46.5738 85.3018 46.2938 85.3018C45.3976 85.345 44.8796 84.8259 44.5155 84.0617C44.3755 83.7589 44.2215 83.456 44.0254 83.1965C43.7874 82.9081 43.4654 82.5188 43.1013 82.735C42.2752 83.2109 41.4071 83.6579 40.735 84.3501C40.4129 84.6817 40.511 84.8692 40.945 84.9413C41.9392 85.1287 42.8213 85.619 43.7034 86.1237C44.3055 86.4986 44.9776 86.7437 45.7337 86.8879ZM23.3586 84.7826C23.2606 85.9795 23.2606 85.9795 24.4367 86.0083C24.5768 86.0083 24.7168 86.0227 24.8568 86.0227C25.9629 86.0371 25.9629 86.0371 26.061 87.2051C26.061 87.2772 26.075 87.3493 26.075 87.4214C26.089 87.5512 26.159 87.6522 26.285 87.6666C26.439 87.6666 26.467 87.5224 26.453 87.407C26.299 86.1093 26.201 84.7826 24.9828 83.9896C23.8907 83.2686 23.4566 83.4849 23.3586 84.7826ZM111.123 91.5022C111.123 90.6082 111.599 90.3342 112.159 90.1323C112.593 89.9737 112.971 89.7574 112.985 89.1951C112.999 88.8922 112.915 88.6615 112.579 88.6471C111.949 88.6039 111.333 88.5606 110.703 88.5462C110.451 88.5317 110.227 88.6183 110.213 88.9355C110.157 89.8439 110.283 90.6803 111.123 91.5022ZM111.137 66.2966C111.081 66.3111 110.983 66.3111 110.899 66.3399C109.989 66.6139 109.274 67.2339 108.518 67.7963C108.28 67.9693 108.238 68.3442 108.196 68.647C108.154 68.9354 108.42 69.0364 108.588 69.195C108.728 69.3248 108.854 69.2383 108.924 69.0941C109.232 68.4307 109.849 68.1856 110.437 67.9116C110.913 67.6954 111.319 67.3781 111.529 66.859C111.669 66.5274 111.585 66.2822 111.137 66.2966ZM124.901 46.3254C124.355 45.316 124.257 44.2346 123.92 43.2252C123.85 43.0233 123.766 42.8214 123.584 42.6917C123.304 42.4609 123.066 42.6051 122.828 42.7926C122.646 42.9368 122.534 43.1098 122.73 43.3405C123.346 44.0471 123.654 44.9411 124.145 45.7198C124.313 45.9649 124.439 46.2533 124.901 46.3254Z" fill="#19772E"/>
<path d="M94.9505 117.097C94.4604 118.323 94.0264 119.404 93.6063 120.486C93.2142 121.481 92.8082 122.476 92.4441 123.499C92.2761 123.99 91.9961 124.148 91.506 124.134C89.6998 124.076 90.1198 124.379 89.5037 122.721C88.1455 119.044 86.8154 115.352 85.4712 111.675C85.2331 111.026 85.0231 110.349 84.393 109.959C84.211 109.844 84.155 109.642 84.239 109.455C84.351 109.181 84.6031 109.195 84.8411 109.195C86.4093 109.195 87.9635 109.195 89.5317 109.195C89.7698 109.195 89.9938 109.195 90.2318 109.21C90.4279 109.224 90.6239 109.253 90.6939 109.455C90.7779 109.671 90.6379 109.83 90.4699 109.931C89.8958 110.291 89.9798 110.839 90.1478 111.344C90.9459 113.622 91.786 115.886 92.6122 118.15C92.6542 118.279 92.7522 118.453 92.8502 118.467C93.0602 118.51 93.0882 118.279 93.1442 118.135C93.3543 117.602 93.5083 117.025 93.7883 116.549C94.4044 115.496 94.2784 114.473 93.8303 113.406C93.5503 112.728 93.3543 111.993 93.1302 111.3C92.9762 110.81 92.7522 110.363 92.3181 110.075C92.1081 109.931 91.9541 109.757 92.0381 109.484C92.1221 109.181 92.3881 109.21 92.6122 109.21C94.3344 109.195 96.0706 109.195 97.7929 109.195C98.0169 109.195 98.2829 109.195 98.3809 109.469C98.465 109.729 98.2689 109.858 98.1009 109.988C97.5688 110.392 97.7369 110.94 97.8909 111.43C98.3809 113.132 98.885 114.833 99.4031 116.52C99.5711 117.083 99.6411 117.674 99.9912 118.251C100.411 117.616 100.579 116.938 100.803 116.304C101.335 114.776 102.021 113.29 102.301 111.675C102.47 110.724 102.287 110.378 101.447 109.974C101.265 109.887 101.027 109.844 101.055 109.541C101.097 109.21 101.349 109.195 101.573 109.195C102.736 109.195 103.912 109.195 105.074 109.21C105.256 109.21 105.466 109.224 105.55 109.426C105.62 109.584 105.592 109.786 105.452 109.887C104.29 110.796 104.024 112.209 103.534 113.492C102.287 116.751 101.083 120.024 99.8932 123.312C99.6691 123.932 99.3751 124.163 98.731 124.134C97.0788 124.062 97.4988 124.379 96.9248 122.778C96.3227 121.034 95.7626 119.289 95.1745 117.53C95.1605 117.443 95.1045 117.371 94.9505 117.097Z" fill="#19772E"/>
<path d="M22.2664 60.4999C21.4823 60.4855 20.9923 60.0673 20.7402 59.3896C20.5582 58.8993 20.3762 58.9282 20.0681 59.2743C18.4439 61.1344 16.2596 61.8842 14.0193 62.5187C13.0252 62.7927 11.975 61.9852 11.807 60.8316C11.709 60.1971 11.4429 60.0673 10.8829 60.0529C9.41266 60.0241 7.94246 59.952 6.47226 59.8655C5.75816 59.8222 5.70215 59.6924 6.0382 59.0435C6.52826 58.0774 7.28437 57.4862 8.37652 57.5006C8.9786 57.5151 9.14663 57.2555 9.11862 56.6931C9.07662 55.6405 9.11862 54.5879 9.38466 53.5497C9.53868 52.944 9.79071 52.6989 10.4348 53.0305C11.4009 53.5352 12.3811 53.3622 13.3332 52.9296C14.3974 52.4393 15.4335 51.8914 16.6237 51.776C17.6598 51.6751 17.8978 51.776 18.2899 52.7566C18.5559 53.4199 19.06 53.6218 19.7041 53.5208C20.3482 53.4199 20.9923 53.2901 21.6504 53.2901C22.4765 53.2757 22.7285 53.492 22.8265 54.3427C22.8545 54.5734 22.8405 54.8186 22.8545 55.0637C22.8545 55.3377 22.9805 55.4963 23.2466 55.4098C24.3947 54.9916 25.1648 55.6261 25.8789 56.4047C26.019 56.5634 26.173 56.7076 26.313 56.8662C27.1391 57.7746 27.1391 57.7746 26.117 58.4956C25.2769 59.1012 24.4647 59.7357 23.4986 60.1539C23.0926 60.3413 22.6725 60.4567 22.2664 60.4999Z" fill="#19772E"/>
<path d="M21.1463 124.22C19.256 124.566 17.4498 124.264 15.6715 123.543C14.7054 123.153 14.4954 123.254 13.8653 124.047C13.7253 124.235 13.5432 124.235 13.3612 124.206C13.0812 124.163 13.0672 123.932 13.0672 123.716C13.0532 122.995 13.0672 122.274 13.0532 121.553C13.0532 120.76 13.0532 119.967 13.0532 119.174C13.0532 118.885 13.0532 118.568 13.4312 118.525C13.7813 118.481 13.9213 118.712 14.0333 119C14.6494 120.745 15.8256 121.942 17.4358 122.721C18.2479 123.11 19.088 123.225 19.9561 122.908C20.6842 122.649 21.2023 122.202 21.3003 121.336C21.3983 120.457 21.0903 119.851 20.3482 119.433C19.3681 118.871 18.2759 118.597 17.2258 118.193C16.3156 117.832 15.4335 117.429 14.6074 116.852C12.1291 115.078 12.2551 110.623 15.2095 109.238C17.2678 108.272 19.3541 107.998 21.4963 108.964C21.7904 109.094 22.0984 109.224 22.4065 109.31C22.7985 109.411 23.1766 109.31 23.3446 108.892C23.4566 108.618 23.5966 108.489 23.8627 108.546C24.1707 108.604 24.1707 108.878 24.1707 109.109C24.1847 109.931 24.1707 110.738 24.1847 111.56C24.1847 111.848 24.2127 112.137 24.2267 112.425C24.2127 112.54 24.2127 112.67 24.1847 112.786C24.1007 113.117 24.3387 113.636 23.7787 113.708C23.2186 113.781 23.2886 113.233 23.1766 112.915C22.4625 110.825 20.8243 109.671 18.822 109.844C17.9399 109.916 17.2538 110.406 17.1137 111.07C16.9457 111.863 17.3238 112.555 18.2059 113.016C18.976 113.42 19.8021 113.665 20.6142 113.954C23.0226 114.819 24.8988 116.174 25.1929 119.058C25.1789 119.347 25.1789 119.635 25.1649 119.909C24.8988 121.856 23.9187 123.197 22.0984 123.86C21.8044 123.99 21.4823 124.105 21.1463 124.22Z" fill="#19772E"/>
<path d="M137.096 115.482C137.096 117.501 137.11 119.52 137.096 121.538C137.096 122.057 137.194 122.49 137.656 122.764C137.81 122.851 137.922 122.951 137.908 123.153C137.88 123.384 137.698 123.384 137.544 123.413C136.214 123.615 134.87 123.817 133.54 124.019C133.218 124.076 133.05 123.975 133.036 123.615C133.008 123.096 132.728 123.225 132.476 123.427C130.487 124.97 128.177 123.701 127.491 121.625C126.833 119.649 126.791 117.659 127.505 115.698C128.387 113.334 130.249 112.468 132.56 113.319C132.952 113.463 133.022 113.319 133.022 112.987C133.022 112.05 133.022 111.113 133.008 110.176C132.994 109.743 132.84 109.383 132.392 109.238C132.21 109.181 132.112 109.065 132.154 108.863C132.196 108.69 132.35 108.676 132.49 108.676C133.89 108.676 135.29 108.662 136.69 108.676C137.208 108.676 137.082 109.123 137.096 109.426C137.11 110.435 137.096 111.445 137.096 112.454C137.096 113.463 137.096 114.473 137.096 115.482ZM133.022 118.481C133.022 117.515 133.036 116.564 133.022 115.597C133.008 115.194 132.868 114.819 132.42 114.761C131.986 114.703 131.818 115.05 131.664 115.381C131.58 115.554 131.552 115.742 131.496 115.929C131.243 116.967 131.383 118.034 131.355 119.087C131.327 119.88 131.369 120.673 131.622 121.437C131.762 121.856 131.958 122.202 132.448 122.158C132.98 122.101 133.008 121.639 133.022 121.236C133.036 120.313 133.022 119.404 133.022 118.481Z" fill="#19772E"/>
<path d="M39.2368 124.307C39.0968 124.292 38.9568 124.278 38.8168 124.264C37.6266 123.932 36.5764 123.37 35.7363 122.404C35.6943 122.346 35.6523 122.288 35.6103 122.23C34.7142 120.673 34.4621 119.015 34.7422 117.241C35.1342 114.848 36.6184 113.305 38.9428 112.843C40.1469 112.598 41.3091 112.771 42.4713 113.088C42.5693 113.117 42.6533 113.146 42.7513 113.175C43.2834 113.593 43.9275 113.838 44.3755 114.386C45.8177 116.16 45.9997 118.207 45.5517 120.341C45.1456 122.303 43.9135 123.514 42.0792 124.091C41.6591 124.22 41.2251 124.292 40.791 124.393C40.413 124.393 40.0489 124.393 39.6709 124.393C39.5028 124.365 39.3628 124.336 39.2368 124.307ZM39.0968 118.265C39.0968 119.26 39.0828 119.995 39.0968 120.745C39.1108 121.38 39.2088 122 39.4748 122.562C39.7969 123.24 40.441 123.269 40.833 122.62C41.0851 122.202 41.1551 121.726 41.1971 121.25C41.3511 119.433 41.3511 117.602 41.1831 115.785C41.1551 115.41 41.0431 115.035 40.931 114.675C40.819 114.3 40.567 114.055 40.1609 114.04C39.7689 114.026 39.5589 114.285 39.4328 114.602C39.3488 114.819 39.2788 115.049 39.2228 115.28C38.9708 116.347 39.1388 117.429 39.0968 118.265Z" fill="#19772E"/>
<path d="M115.365 118.813C115.365 115.958 116.583 113.968 118.53 113.305C121.078 112.44 123.682 113.088 124.999 114.977C126.735 117.472 126.539 122.836 122.24 123.874C120.21 124.365 118.348 124.062 116.779 122.562C115.645 121.481 115.407 120.01 115.365 118.813ZM121.736 118.553C121.736 118.236 121.75 117.933 121.736 117.616C121.694 116.665 121.764 115.698 121.414 114.776C121.288 114.444 121.092 114.199 120.7 114.184C120.336 114.17 120.154 114.401 120.014 114.703C119.874 115.035 119.748 115.367 119.72 115.727C119.58 117.602 119.552 119.462 119.734 121.336C119.776 121.769 119.846 122.187 120.126 122.548C120.504 123.024 120.924 123.009 121.274 122.519C121.428 122.303 121.498 122.043 121.554 121.783C121.792 120.716 121.694 119.621 121.736 118.553Z" fill="#19772E"/>
<path d="M103.73 118.236C103.744 116.391 104.36 114.516 106.348 113.579C108.462 112.584 110.619 112.613 112.565 114.127C113.951 115.208 114.315 116.794 114.357 118.481C114.455 121.827 112.299 124.148 109.064 124.091C105.844 124.033 103.716 122.173 103.73 118.236ZM110.058 118.481C110.016 117.53 110.143 116.549 109.96 115.612C109.848 115.035 109.862 114.213 109.05 114.213C108.252 114.213 108.182 115.006 108.112 115.597C107.874 117.429 107.916 119.274 108.07 121.12C108.098 121.452 108.154 121.783 108.266 122.101C108.392 122.49 108.588 122.894 109.078 122.879C109.568 122.865 109.708 122.447 109.834 122.057C109.89 121.899 109.904 121.726 109.946 121.567C110.143 120.543 110.002 119.505 110.058 118.481Z" fill="#19772E"/>
<path d="M62.508 118.352C61.7659 118.352 61.0098 118.366 60.2677 118.352C59.8477 118.352 59.6656 118.553 59.7077 118.972C59.7357 119.274 59.7777 119.592 59.8337 119.895C60.2677 122 62.06 122.649 63.6842 121.293C63.9782 121.048 64.2163 120.846 64.5803 121.192C65.0144 121.596 64.6223 121.827 64.4263 122.086C63.2081 123.672 61.6819 124.595 59.6376 124.336C57.7614 124.091 56.4032 123.081 55.7591 121.264C54.975 119.087 55.073 116.91 56.3612 114.934C57.7754 112.771 60.9118 112.05 63.0961 113.377C64.7344 114.372 65.1964 116.03 65.2804 117.861C65.2944 118.236 65.0984 118.366 64.7624 118.366C64.0062 118.337 63.2501 118.337 62.508 118.352ZM61.4859 116.217C61.5139 115.713 61.3879 115.223 61.2619 114.732C61.1639 114.386 61.0518 114.011 60.5898 114.026C60.1697 114.04 59.9877 114.372 59.9037 114.732C59.8057 115.194 59.7497 115.67 59.6937 116.145C59.6236 116.737 59.7497 117.097 60.4638 117.068C61.4579 117.039 61.4859 117.054 61.4859 116.217Z" fill="#19772E"/>
<path d="M29.8555 124.393L29.7995 124.379H29.7295C28.0213 123.817 27.4332 123.052 27.3352 121.236C27.3212 120.976 27.3212 120.716 27.3212 120.442C27.3212 118.654 27.3072 116.852 27.3212 115.064C27.3212 114.646 27.2372 114.357 26.7611 114.343C26.4951 114.329 26.159 114.401 26.117 113.982C26.089 113.608 26.3971 113.535 26.6491 113.406C27.4612 112.987 28.2873 112.613 28.8754 111.848C29.0154 111.747 29.1554 111.675 29.2674 111.56C29.7995 111.012 30.2616 110.406 30.6396 109.743C30.7797 109.498 30.9477 109.31 31.2557 109.397C31.5638 109.484 31.5218 109.757 31.5358 109.988C31.5498 110.349 31.5358 110.709 31.5358 111.07C31.5358 113.103 31.5358 113.103 33.468 113.117L33.482 113.146C33.482 114.314 33.482 114.314 32.3619 114.343C32.3339 114.343 32.3199 114.343 32.2919 114.343C31.7598 114.3 31.5358 114.516 31.5358 115.093C31.5638 116.29 31.5218 117.501 31.5358 118.698C31.5358 119.52 31.4938 120.342 31.5778 121.149C31.6898 122.245 32.0538 122.432 33.006 121.957C33.272 121.827 33.426 121.87 33.608 122.072C33.8041 122.303 33.7761 122.504 33.594 122.706C33.44 122.879 33.272 123.052 33.104 123.211C32.4039 123.86 31.5358 124.134 30.6536 124.379C30.5136 124.393 30.3736 124.393 30.2196 124.408C30.1216 124.408 29.9815 124.408 29.8555 124.393Z" fill="#19772E"/>
<path d="M46.3638 113.146C47.848 113.132 49.3462 113.161 50.8304 113.103C51.4465 113.088 51.4045 113.507 51.4465 113.896C51.7825 113.882 51.8806 113.593 52.0626 113.435C52.3846 113.146 52.7347 112.93 53.1547 112.814C53.8968 112.598 54.681 112.872 54.989 113.463C55.353 114.17 55.171 115.223 54.6109 115.713C54.0929 116.16 53.2107 116.117 52.6087 115.612C51.9506 115.049 51.6005 115.15 51.5445 116.03C51.3905 118.179 51.4465 120.342 51.5165 122.504C51.5305 122.851 51.6985 123.153 52.0346 123.298C52.2306 123.398 52.5387 123.413 52.4406 123.759C52.3566 124.033 52.0906 123.961 51.8946 123.961C50.0463 123.961 48.2121 123.946 46.3638 123.946C46.3498 123.672 46.3498 123.427 46.6578 123.298C47.0639 123.11 47.2039 122.75 47.2039 122.303C47.2039 119.808 47.2039 117.313 47.2039 114.819C47.2039 114.357 47.1199 113.925 46.6298 113.781C46.2798 113.665 46.3778 113.406 46.3638 113.146Z" fill="#19772E"/>
</svg>
