<?xml version="1.0" standalone="no"?>
<!DOCTYPE svg PUBLIC "-//W3C//DTD SVG 20010904//EN"
 "http://www.w3.org/TR/2001/REC-SVG-20010904/DTD/svg10.dtd">
<svg version="1.0" xmlns="http://www.w3.org/2000/svg"
 width="440.000000pt" height="440.000000pt" viewBox="0 0 440.000000 440.000000"
 preserveAspectRatio="xMidYMid meet">
<metadata>
Created by potrace 1.14, written by Peter Selinger 2001-2017
</metadata>
<g transform="translate(0.000000,440.000000) scale(0.100000,-0.100000)"
fill="#000000" stroke="none">
<path d="M2400 4113 c-8 -3 -27 -17 -41 -30 -26 -24 -28 -24 -58 -9 -55 29
-75 4 -83 -103 -3 -30 -8 -35 -47 -50 -57 -21 -69 -40 -53 -83 6 -17 9 -34 7
-37 -3 -3 -27 -5 -53 -5 -46 -1 -47 0 -50 31 -6 61 -126 142 -210 143 -88 0
-162 -67 -88 -80 30 -5 49 -30 23 -30 -8 0 -34 7 -58 15 -111 40 -179 41 -179
4 0 -12 14 -28 35 -40 45 -27 46 -49 3 -49 -18 -1 -60 -7 -93 -15 -33 -8 -77
-15 -98 -15 -44 0 -55 -17 -37 -60 11 -26 17 -29 66 -32 62 -3 75 -19 24 -29
-18 -4 -39 -15 -46 -24 -11 -15 -18 -13 -67 20 -31 20 -58 43 -61 51 -3 8 -11
14 -19 14 -18 0 -63 -49 -76 -82 -9 -24 -16 -28 -49 -28 -28 0 -45 -7 -61 -24
-24 -26 -51 -25 -51 1 0 11 -5 13 -17 7 -10 -4 -37 -9 -60 -12 -24 -2 -43 -9
-43 -14 0 -27 34 -137 55 -177 29 -57 78 -106 99 -98 10 4 16 19 16 40 0 40 8
51 27 36 8 -7 13 -32 13 -63 0 -73 38 -104 62 -51 14 30 22 31 48 5 15 -15 33
-20 75 -20 30 0 55 4 55 8 0 5 -11 19 -25 32 -37 35 -31 40 25 19 38 -14 76
-19 155 -19 l104 0 6 -37 c3 -21 10 -57 16 -80 13 -57 11 -73 -6 -73 -32 0
-64 -24 -81 -61 -20 -45 -24 -46 -49 -19 -21 24 -28 19 -45 -33 -9 -29 -23
-44 -63 -67 -45 -26 -62 -30 -129 -30 -72 0 -78 -2 -78 -20 0 -13 10 -24 25
-30 45 -17 20 -60 -35 -60 -15 0 -22 -8 -26 -30 -9 -43 -37 -39 -89 14 -42 44
-43 46 -33 85 14 56 38 63 38 11 0 -51 27 -69 62 -41 19 16 23 28 21 66 l-2
47 90 -4 c104 -5 104 -5 57 86 -69 128 -223 246 -367 280 l-63 15 -16 -31
c-33 -60 -57 -81 -92 -81 l-33 0 30 -26 c16 -14 51 -38 77 -54 52 -30 59 -57
16 -67 -37 -9 -35 -54 3 -58 19 -2 27 -9 27 -23 0 -16 -3 -18 -19 -9 -11 5
-40 10 -65 10 -34 0 -46 4 -46 15 0 12 -11 15 -50 13 -42 -2 -50 -6 -50 -21 0
-11 11 -33 25 -49 28 -33 25 -48 -9 -48 -31 0 -220 -67 -224 -79 -7 -21 57
-41 131 -41 120 0 135 -6 148 -54 5 -22 13 -49 15 -59 3 -10 19 -20 35 -24 32
-6 42 -27 37 -83 -3 -34 -2 -35 35 -38 21 -2 66 6 100 17 99 34 177 25 177
-21 0 -19 -4 -20 -55 -14 l-55 6 0 -40 c0 -28 4 -40 14 -40 20 0 133 -49 179
-77 20 -13 37 -30 37 -38 0 -22 -186 -22 -218 0 -16 12 -27 13 -41 5 -31 -16
-51 -12 -63 15 -12 27 -44 33 -77 15 -25 -13 -45 -64 -37 -94 5 -22 11 -25 48
-23 38 2 42 0 43 -22 0 -27 13 -35 70 -48 47 -10 60 -38 18 -39 -16 0 -40 -4
-54 -8 -23 -6 -28 -3 -39 23 -11 29 -16 31 -62 31 -27 0 -63 7 -80 16 -21 11
-50 15 -95 12 -55 -2 -67 0 -79 17 -14 19 -16 19 -25 3 -5 -10 -30 -31 -54
-48 -26 -18 -48 -43 -56 -63 l-12 -34 -120 -13 c-89 -10 -136 -11 -181 -3 -34
6 -65 7 -69 3 -15 -13 12 -49 52 -69 20 -11 43 -27 50 -35 18 -21 44 -20 72 3
23 18 23 18 41 -4 10 -13 18 -26 18 -29 0 -3 -25 -6 -55 -6 -30 0 -55 -3 -55
-7 0 -16 16 -30 38 -37 15 -5 25 -18 29 -37 4 -23 11 -29 32 -29 14 0 35 7 45
15 17 13 22 12 44 -5 34 -27 88 -25 142 5 117 66 162 85 195 85 41 0 53 -17
34 -52 -7 -13 -18 -48 -24 -78 -11 -53 -13 -55 -48 -61 -21 -3 -40 -9 -43 -12
-12 -12 6 -37 27 -37 24 0 24 1 -19 -67 -32 -51 -54 -64 -67 -43 -10 17 -32
11 -38 -9 -4 -17 -9 -18 -51 -8 -88 20 -119 -19 -98 -122 14 -66 75 -161 103
-161 12 0 24 13 33 35 8 19 22 35 30 35 19 0 20 -16 4 -60 -17 -51 3 -60 124
-56 54 2 101 6 104 9 3 2 -6 14 -20 25 -15 11 -26 25 -26 31 0 14 1 14 38 -5
19 -9 78 -18 156 -23 102 -7 131 -12 160 -31 l36 -22 31 68 c17 37 33 92 36
121 l6 53 -45 0 c-24 0 -53 6 -64 14 -18 14 -18 16 15 50 31 32 33 37 22 67
-16 46 -4 50 31 9 17 -19 46 -52 65 -74 l34 -39 75 5 c64 4 79 2 100 -15 14
-10 26 -18 28 -16 2 2 9 14 15 26 15 30 21 29 61 -7 18 -16 37 -30 41 -30 3 0
17 -27 29 -61 28 -75 21 -84 -60 -84 -45 1 -66 6 -90 23 -23 18 -34 20 -49 12
-31 -16 -48 -12 -85 20 -29 26 -38 29 -59 21 -45 -17 -66 -92 -29 -105 9 -4
52 -30 94 -59 78 -52 94 -78 53 -86 -39 -7 -45 -37 -15 -71 11 -13 20 -29 20
-37 0 -11 4 -11 23 1 31 20 156 40 182 28 11 -5 34 -13 50 -18 22 -7 31 -16
33 -37 4 -31 31 -37 52 -12 7 9 18 14 24 12 6 -2 16 9 23 25 14 32 31 35 79
12 34 -16 36 -16 77 13 23 17 57 38 75 47 29 15 33 21 27 45 -5 23 -1 29 19
39 14 6 32 25 41 42 9 17 19 28 24 26 7 -5 23 -105 36 -219 7 -71 -26 -360
-65 -566 -5 -29 -10 -58 -10 -62 0 -5 104 -9 231 -9 l231 0 -6 23 c-13 54 -55
331 -66 441 -13 119 -9 204 11 325 l11 64 24 -31 c14 -17 40 -36 59 -42 31
-10 34 -15 37 -53 l3 -42 82 -1 c74 0 83 2 91 21 5 12 32 32 58 45 27 13 57
27 66 32 27 12 44 10 88 -13 l41 -22 29 22 c34 25 46 26 54 6 3 -9 18 -15 34
-15 16 0 51 -7 78 -15 56 -17 120 -20 129 -5 9 15 25 12 25 -4 0 -8 -8 -17
-17 -21 -17 -6 -17 -7 0 -19 9 -8 39 -16 66 -20 27 -3 61 -16 75 -27 22 -18
29 -19 42 -8 12 10 15 24 10 61 -6 44 -5 48 14 48 16 0 20 -6 20 -35 0 -30 3
-35 24 -35 59 0 80 18 125 110 41 82 44 91 31 115 -14 27 -29 32 -47 14 -8 -8
-13 -5 -18 10 -6 21 -25 29 -25 11 0 -25 -32 -20 -65 9 -20 17 -47 31 -60 31
-28 0 -33 21 -10 40 9 7 39 17 68 21 28 5 64 18 79 29 15 11 30 20 32 20 3 0
13 -16 21 -36 12 -29 19 -35 32 -29 10 5 43 14 75 20 31 7 61 16 67 19 25 16
7 50 -65 123 -81 83 -110 120 -101 129 8 9 59 -26 89 -60 26 -30 27 -30 41
-11 12 15 18 17 29 7 12 -10 19 -8 34 9 10 12 47 34 80 49 34 16 68 38 77 50
13 18 19 20 36 11 11 -7 38 -11 58 -10 21 1 46 -1 56 -5 14 -7 17 -3 17 21 0
67 -69 120 -243 188 -51 19 -107 44 -124 55 -42 25 -44 50 -4 50 16 0 34 7 41
15 9 11 23 13 50 9 34 -6 40 -3 56 22 10 16 19 31 21 33 2 2 12 -4 24 -14 14
-13 40 -20 85 -23 59 -4 67 -2 81 18 8 12 48 37 89 55 41 19 74 38 74 43 0 4
-14 18 -30 31 -17 12 -41 42 -52 67 -18 35 -27 44 -48 44 -59 0 -147 -26 -227
-66 -91 -46 -110 -46 -147 -6 l-18 21 -39 -24 c-68 -44 -169 -55 -169 -20 0
21 -39 43 -92 50 -83 12 -100 44 -44 81 23 14 34 15 90 4 78 -14 119 -7 140
26 14 21 24 24 75 24 46 0 66 5 97 26 l38 26 16 -23 c55 -85 124 -126 164 -96
18 14 19 16 3 80 -10 36 -17 84 -17 107 0 45 -16 53 -30 15 -10 -27 -30 -34
-30 -11 0 8 -3 21 -6 29 -3 10 4 22 19 32 23 15 28 15 55 1 19 -10 38 -33 52
-63 34 -76 35 -77 69 -87 44 -13 69 12 73 73 3 45 3 46 36 43 30 -3 32 -1 32
26 0 26 -8 34 -54 61 -30 17 -69 48 -87 71 -36 45 -65 51 -107 22 -15 -10 -32
-22 -38 -25 -7 -4 -36 9 -65 29 -29 20 -76 48 -105 61 l-53 24 44 60 c43 59
85 152 85 190 0 25 -36 39 -105 39 -45 0 -56 4 -65 21 -6 11 -32 44 -58 72
-26 29 -54 63 -63 77 l-17 25 -18 -21 c-11 -12 -41 -27 -69 -34 -44 -10 -51
-9 -63 7 -31 42 -32 49 -3 84 54 66 86 154 71 194 -7 19 -19 24 -72 32 -51 6
-65 12 -73 31 -11 24 -20 28 -30 12 -13 -21 -26 -8 -55 53 -16 35 -39 72 -50
82 -19 17 -21 17 -39 1 -30 -27 -80 -37 -122 -24 -51 15 -95 63 -117 128 l-19
55 -47 3 -47 3 -34 -76 c-19 -42 -35 -80 -35 -85 0 -6 16 -16 35 -24 24 -11
33 -19 29 -30 -5 -12 -10 -13 -26 -5 -11 6 -60 12 -109 14 -64 3 -107 11 -152
28 -34 13 -70 27 -80 31 -10 3 -17 12 -15 19 5 13 85 77 98 77 4 0 13 -13 20
-30 9 -23 19 -30 39 -29 48 1 163 36 172 52 7 11 -1 32 -27 74 -45 69 -50 74
-89 71 -27 -3 -30 0 -33 30 -3 25 -8 32 -25 32 -12 0 -73 18 -136 40 -112 39
-140 44 -171 33z m78 -448 c51 -13 125 -39 165 -56 55 -23 81 -29 110 -25 55
9 97 -16 97 -58 0 -17 -121 -246 -154 -291 -13 -18 -17 -17 -92 33 -96 62
-150 87 -240 108 -85 20 -243 15 -289 -8 -68 -36 -85 -91 -34 -115 14 -7 95
-19 180 -28 374 -39 511 -100 592 -264 30 -61 32 -72 32 -171 0 -97 -2 -110
-32 -172 -19 -40 -51 -87 -80 -114 -49 -48 -161 -109 -221 -120 -18 -4 -36
-12 -38 -19 -3 -6 34 -115 82 -241 47 -126 90 -241 96 -256 13 -37 21 -35 37
10 7 20 48 132 91 247 43 116 80 219 84 230 4 15 -2 24 -25 37 -27 16 -30 22
-27 60 5 66 17 69 259 66 230 -3 239 -6 239 -67 0 -43 -6 -51 -45 -71 -34 -18
-24 5 -290 -702 l-179 -478 -106 -2 c-138 -2 -152 -1 -161 14 -5 7 -70 177
-145 378 -75 201 -137 366 -138 367 -1 2 -40 -100 -86 -225 -119 -325 -190
-505 -203 -519 -14 -14 -243 -21 -256 -7 -5 5 -25 54 -46 108 -63 170 -315
836 -357 944 -35 91 -45 106 -79 128 -38 23 -40 28 -37 67 5 66 18 69 256 64
184 -3 205 -6 222 -23 33 -34 35 -70 6 -97 -14 -13 -26 -29 -26 -35 0 -16 181
-515 190 -525 4 -5 19 22 33 60 14 37 60 155 101 261 42 105 76 196 76 202 0
5 -26 17 -57 26 -112 32 -343 170 -376 225 -7 11 11 43 78 135 48 65 95 122
104 125 33 13 79 -16 90 -56 11 -42 24 -54 101 -94 112 -58 311 -79 419 -44
92 29 132 111 70 140 -15 7 -125 24 -245 39 -233 27 -308 46 -388 97 -157 100
-210 319 -119 500 85 170 272 252 548 242 86 -3 146 -11 213 -30z m570 -264
c37 -26 84 -34 126 -22 28 7 36 6 36 -4 0 -7 -9 -15 -20 -18 -35 -9 -24 -35
16 -39 31 -3 37 -8 54 -46 l19 -42 -25 -16 c-23 -15 -26 -15 -44 1 -32 29 -43
10 -35 -64 9 -98 3 -103 -109 -91 -49 6 -110 20 -135 31 -25 11 -55 18 -67 15
-15 -4 -30 5 -55 30 l-34 35 34 62 c18 34 43 77 53 95 l20 33 23 -21 c16 -15
33 -20 56 -18 33 3 34 5 37 51 3 52 11 56 50 28z m373 -441 c10 -6 19 -17 19
-25 0 -19 42 -29 92 -21 40 6 40 6 34 -20 -8 -30 8 -54 35 -54 18 0 19 -2 4
-31 -11 -20 -21 -28 -33 -25 -9 3 -34 8 -54 12 -21 3 -43 12 -49 20 -9 12 -14
12 -27 2 -8 -7 -35 -20 -61 -28 -41 -13 -46 -18 -49 -48 -2 -18 -6 -32 -10
-30 -4 2 -23 9 -43 17 -30 12 -37 20 -45 58 -12 50 -5 61 19 33 20 -24 37 -18
66 21 20 26 21 33 10 64 -10 27 -10 37 0 49 15 18 63 21 92 6z m289 -177 c9
-29 14 -53 11 -53 -8 1 -61 88 -61 101 0 6 7 9 16 7 10 -2 24 -24 34 -55z
m-380 -663 c0 -5 -12 -17 -26 -27 -14 -10 -35 -26 -46 -37 -16 -15 -22 -16
-29 -5 -10 17 1 36 37 60 31 20 64 25 64 9z m89 -126 c11 -14 22 -30 24 -37 3
-7 17 2 35 23 23 27 33 32 42 23 9 -9 9 -20 0 -49 -9 -26 -10 -62 -5 -123 5
-47 9 -104 9 -125 l1 -39 -80 -4 c-92 -4 -108 -15 -119 -82 -4 -30 -11 -41
-24 -41 -9 0 -30 -9 -47 -20 -16 -11 -39 -20 -50 -20 -18 -1 -17 -3 8 -21 28
-22 37 -59 13 -59 -22 0 -65 39 -84 77 -16 31 -24 36 -61 38 -24 2 -45 6 -47
8 -5 5 25 87 37 101 4 5 24 1 45 -9 64 -30 174 -5 174 40 0 6 -20 25 -44 42
-25 18 -53 44 -62 60 -10 15 -24 33 -32 40 -13 11 -11 22 13 88 26 73 29 76
54 70 19 -4 41 2 72 19 58 34 101 34 128 0z m-2275 -39 c34 -16 88 -75 99
-108 3 -9 8 -9 20 1 10 9 28 11 50 7 31 -6 38 -13 57 -60 12 -30 19 -59 15
-64 -8 -14 -41 -14 -83 1 -32 12 -35 11 -62 -19 -15 -17 -32 -39 -38 -49 -9
-16 -15 -13 -63 30 -55 49 -129 91 -224 127 -57 21 -60 25 -47 47 7 10 14 10
38 -3 38 -19 46 -19 74 5 13 11 28 20 33 20 6 0 -1 13 -16 28 -15 15 -27 36
-27 46 0 16 8 18 68 14 37 -2 84 -12 106 -23z m167 -350 c12 -19 31 -38 44
-41 16 -4 21 -11 18 -25 -3 -11 -9 -22 -14 -25 -13 -7 -159 59 -156 71 4 12
66 55 79 55 5 0 18 -16 29 -35z m-571 -13 c14 -12 23 -32 25 -62 3 -31 2 -37
-3 -20 -6 20 -15 26 -45 28 -33 3 -37 6 -37 31 0 45 22 54 60 23z m2630 -145
c0 -13 -60 -70 -67 -64 -8 9 -21 66 -15 71 11 12 82 6 82 -7z"/>
<path d="M455 2563 c-11 -3 -39 -14 -63 -25 -27 -12 -59 -18 -85 -16 l-42 3
-10 -64 c-9 -61 -12 -65 -42 -73 -32 -8 -61 -43 -48 -56 3 -4 40 -8 81 -10 70
-4 76 -6 89 -33 8 -15 22 -32 32 -37 30 -17 142 26 196 76 l27 26 16 -22 c9
-13 26 -22 42 -22 35 0 132 60 132 81 0 26 -57 69 -91 69 -17 0 -28 3 -26 8 3
4 1 18 -4 31 -9 22 -13 23 -58 18 -45 -5 -51 -3 -75 24 -26 29 -33 31 -71 22z"/>
<path d="M481 858 c-77 -22 -111 -66 -111 -144 0 -41 5 -51 38 -83 23 -22 64
-45 104 -59 75 -27 108 -53 108 -86 0 -50 -69 -72 -129 -41 -33 16 -77 65 -86
95 -3 11 -13 20 -21 20 -11 0 -14 -17 -14 -80 0 -80 9 -97 36 -70 7 7 29 6 69
-5 80 -20 128 -19 176 5 50 26 79 72 79 128 0 79 -43 130 -142 168 -75 28 -98
46 -98 73 0 28 28 45 71 44 50 -2 85 -26 106 -74 29 -66 37 -53 33 51 -2 60
-7 72 -20 50 -7 -12 -16 -12 -63 3 -60 19 -86 20 -136 5z"/>
<path d="M3950 851 c0 -6 5 -13 10 -16 6 -3 10 -31 10 -60 l0 -55 -42 6 c-61
7 -101 -20 -122 -82 -50 -146 33 -288 136 -233 15 8 22 8 28 0 4 -8 25 -9 62
-5 69 8 88 18 70 36 -9 9 -12 67 -12 215 l0 203 -70 0 c-38 0 -70 -4 -70 -9z
m18 -281 c3 -106 -2 -126 -28 -110 -19 12 -27 167 -10 199 23 44 35 17 38 -89z"/>
<path d="M876 795 c-20 -25 -55 -54 -77 -65 -38 -20 -45 -40 -13 -40 11 0 14
-21 14 -115 0 -123 9 -157 47 -174 36 -17 67 -13 103 12 44 29 52 52 16 45
-16 -3 -29 -1 -32 6 -6 16 -11 198 -6 214 2 6 15 12 28 12 17 0 24 6 24 20 0
15 -7 20 -25 20 -17 0 -25 6 -26 18 -2 53 -6 82 -10 87 -3 2 -22 -16 -43 -40z"/>
<path d="M2510 835 c0 -3 7 -16 15 -28 8 -12 45 -108 84 -212 l69 -190 34 -3
35 -3 38 101 c22 55 42 100 45 100 3 0 20 -45 39 -100 l32 -100 34 0 c30 0 35
4 49 43 93 252 129 345 142 364 7 12 14 25 14 28 0 3 -30 5 -67 5 l-66 0 23
-25 c18 -19 21 -31 16 -55 -9 -46 -58 -180 -65 -180 -4 0 -22 50 -40 111 -23
79 -29 115 -22 122 23 23 8 27 -84 27 -93 0 -109 -6 -81 -30 8 -6 25 -41 37
-77 21 -63 21 -66 4 -111 -10 -26 -21 -51 -25 -55 -4 -4 -26 45 -50 109 -34
94 -40 121 -31 136 6 10 11 20 11 23 0 3 -43 5 -95 5 -52 0 -95 -2 -95 -5z"/>
<path d="M1114 721 c-65 -30 -89 -72 -89 -158 0 -57 4 -77 21 -99 54 -73 138
-93 220 -54 61 30 88 86 82 172 -7 91 -55 142 -143 152 -37 5 -60 1 -91 -13z
m97 -51 c11 -38 10 -186 -1 -214 -12 -33 -38 -33 -50 0 -13 33 -13 185 0 219
12 33 41 30 51 -5z"/>
<path d="M1553 720 c-27 -16 -33 -17 -33 -5 0 17 -28 19 -103 9 -40 -6 -44 -8
-31 -21 21 -21 20 -250 -2 -281 l-15 -22 90 0 c50 0 91 3 91 6 0 3 -7 12 -15
20 -11 12 -15 39 -15 112 0 116 7 132 45 112 19 -10 31 -11 43 -4 24 16 28 65
6 81 -23 17 -23 17 -61 -7z"/>
<path d="M1730 718 c-82 -42 -113 -151 -71 -245 44 -96 163 -111 240 -30 28
31 20 54 -12 32 -50 -35 -103 -8 -114 59 l-6 36 88 0 87 0 -7 37 c-21 112
-109 160 -205 111z m91 -58 c9 -42 5 -50 -27 -50 -18 0 -24 5 -24 23 1 70 38
91 51 27z"/>
<path d="M3171 708 c-58 -29 -86 -87 -77 -162 12 -96 66 -146 158 -146 61 0
109 28 136 80 44 88 18 191 -60 229 -56 27 -101 27 -157 -1z m107 -139 c2 -96
0 -118 -13 -129 -28 -24 -40 4 -43 106 -5 119 1 146 31 142 21 -3 22 -8 25
-119z"/>
<path d="M3525 711 c-49 -22 -73 -61 -80 -132 -8 -68 22 -133 75 -161 46 -25
136 -19 178 11 60 43 78 145 40 221 -39 76 -127 101 -213 61z m89 -27 c22 -22
23 -211 1 -240 -15 -19 -15 -19 -30 0 -26 34 -18 256 10 256 2 0 11 -7 19 -16z"/>
</g>
</svg>
